<?xml version="1.0" encoding="UTF-8" standalone="no"?>
<!-- Created with Inkscape (http://www.inkscape.org/) -->

<svg
   width="137.98221mm"
   height="137.93915mm"
   viewBox="0 0 137.98221 137.93915"
   version="1.1"
   id="svg1"
   xml:space="preserve"
   inkscape:version="1.4.4 (1:1.4.4+202605061436+dcaf3e7d9e)"
   sodipodi:docname="FbcmjIcon.svg"
   xmlns:inkscape="http://www.inkscape.org/namespaces/inkscape"
   xmlns:sodipodi="http://sodipodi.sourceforge.net/DTD/sodipodi-0.dtd"
   xmlns="http://www.w3.org/2000/svg"
   xmlns:svg="http://www.w3.org/2000/svg"><sodipodi:namedview
     id="namedview1"
     pagecolor="#ffffff"
     bordercolor="#000000"
     borderopacity="0.25"
     inkscape:showpageshadow="2"
     inkscape:pageopacity="0.0"
     inkscape:pagecheckerboard="0"
     inkscape:deskcolor="#d1d1d1"
     inkscape:document-units="mm"
     inkscape:zoom="0.87805358"
     inkscape:cx="205.56832"
     inkscape:cy="309.20664"
     inkscape:window-width="1876"
     inkscape:window-height="1119"
     inkscape:window-x="0"
     inkscape:window-y="0"
     inkscape:window-maximized="1"
     inkscape:current-layer="layer1" /><defs
     id="defs1" /><g
     inkscape:label="Layer 1"
     inkscape:groupmode="layer"
     id="layer1"><path
       style="fill:#d5692a;fill-opacity:1"
       d="m 63.766726,137.80612 c -0.43655,-0.0509 -1.92484,-0.22254 -3.30729,-0.38144 -12.05706,-1.38585 -24.04574,-6.38363 -34.13125,-14.22846 C 15.703946,114.93234 7.0631956,102.38498 3.0729256,89.42689 -0.60722441,77.47592 -0.99483441,64.37825 1.9801356,52.50042 3.3489756,47.035242 5.5021256,41.332872 7.8679956,36.907102 17.286226,19.288652 33.245396,6.7995179 52.504856,1.9757089 c 10.01386,-2.50811497 21.16695,-2.63204097 31.50251,-0.350034 9.97428,2.202241 20.299394,7.200319 28.442704,13.7682501 3.24921,2.620627 8.34745,7.827147 10.96163,11.194427 11.06937,14.25829 16.11482,32.012908 14.15747,49.819238 -1.021,9.28816 -4.14597,18.99923 -8.5765,26.65208 -7.03804,12.15679 -17.37843,21.84572 -29.771764,27.89612 -3.65829,1.78597 -8.74474,3.80147 -8.97086,3.5547 -0.0526,-0.0574 -0.58168,-3.02146 -1.17566,-6.58672 -0.59398,-3.56526 -1.50929,-9.04214 -2.03404,-12.17083 -0.52475,-3.1287 -1.12217,-6.76011 -1.3276,-8.0698 -0.20543,-1.30968 -0.55396,-3.39328 -0.77451,-4.6302 -0.66572,-3.7337 -1.24191,-3.40791 4.82381,-2.72748 2.87403,0.3224 6.89239,0.76921 8.92968,0.99291 2.037304,0.22371 6.849184,0.76332 10.693094,1.19915 5.0475,0.57229 7.08426,0.71328 7.33215,0.50756 0.52047,-0.43195 2.76566,-4.02948 4.27585,-6.85131 2.74175,-5.12303 4.6573,-10.73171 5.91883,-17.33021 0.52843,-2.76402 0.60783,-4.01408 0.61334,-9.65729 0.007,-6.91111 -0.23353,-9.0929 -1.61029,-14.62151 C 122.37202,40.338542 113.10657,27.579832 100.3347,19.340582 96.972796,17.171792 91.497306,14.589006 87.410016,13.244017 66.200246,6.2645999 43.302976,11.71731 27.512356,27.507932 12.426216,42.594072 6.6967156,64.37832 12.441296,84.80991 c 0.76426,2.71822 2.21593,6.81745 2.46863,6.97091 0.19518,0.11852 6.65242,0.91108 14.1964,1.74245 6.73799,0.74255 12.76669,1.41829 28.31042,3.17322 11.02335,1.24457 12.34415,1.37652 12.47442,1.24625 0.076,-0.076 -0.47755,-3.74949 -1.23002,-8.16343 -0.75246,-4.41393 -1.53001,-9.03736 -1.72787,-10.27429 -0.82032,-5.12814 -2.7921,-16.54914 -2.98695,-17.30112 -0.24292,-0.93743 0.55652,-0.70699 -8.38167,-2.41599 -3.4925,-0.66777 -7.71553,-1.4827 -9.38451,-1.81094 l -3.03452,-0.59681 3.2991,-3.22274 c 3.19658,-3.12259 3.32787,-3.21764 4.22514,-3.05866 0.50932,0.0902 3.29339,0.62497 6.18682,1.18829 2.89342,0.56332 5.37912,1.02422 5.52376,1.02422 0.33744,0 0.25719,-0.70161 -1.25599,-10.980208 -0.68553,-4.65667 -1.39046,-9.5556 -1.5665,-10.88652 l -0.32008,-2.41985 3.50831,-3.66557 c 1.92957,-2.01606 3.51411,-3.53331 3.5212,-3.37167 0.0114,0.26019 0.63129,4.08831 2.39446,14.78736 0.28777,1.74625 0.94583,5.79437 1.46234,8.99583 0.51651,3.201458 1.22916,7.606768 1.58366,9.789588 0.3545,2.18281 1.06888,6.58812 1.5875,9.78958 1.24152,7.66387 2.4375,15.02748 5.15679,31.75 2.04518,12.5771 4.06,25.03376 5.04984,31.22084 0.30266,1.89177 0.71984,4.38109 0.92708,5.53183 0.20723,1.15073 0.32509,2.14394 0.2619,2.20713 -0.3125,0.31251 -4.95623,1.1395 -8.45686,1.50608 -3.48909,0.36536 -10.27337,0.4962 -12.46737,0.24043 z m 20.63751,-71.92523 c -2.18281,-0.47462 -4.39188,-0.93812 -4.90904,-1.03 l -0.9403,-0.16705 -0.61662,-3.84274 c -0.33914,-2.1135 -0.54344,-3.91591 -0.454,-4.00535 0.12985,-0.12985 8.97362,1.56174 16.41202,3.13921 l 1.28997,0.27356 -3.27038,3.27825 c -1.7987,1.80304 -3.33169,3.26448 -3.40663,3.24766 -0.075,-0.0168 -1.9222,-0.41892 -4.10502,-0.89354 z"
       id="path1"
       sodipodi:nodetypes="sssssssssssssssssssssssscsssssssssssssscscsssscsssssssssssssscssscscs" /></g></svg>
